<svg xmlns="http://www.w3.org/2000/svg" version="1.1" xmlns:xlink="http://www.w3.org/1999/xlink" xmlns:svgjs="http://svgjs.com/svgjs" id="Pattern1514SvgRootPreview" width="100%" height="100%"><defs><pattern x="0" y="0" width="1" height="1" patternUnits="userSpaceOnUse" id="Pattern1514Layer1" patternTransform="matrix(1.1862244897959182,0,0,1.1862244897959182,0,0)"><g id="PatternRootContent1"><g id="Pattern1514Layer1background"><rect width="1" height="1" id="Pattern1514Background1" class="color_1 fill_color_1" fill="#d99e89"></rect></g></g></pattern><pattern x="0" y="0" width="49" height="84" patternUnits="userSpaceOnUse" id="Pattern1514Layer2" patternTransform="matrix(0.9489795918367346,0,0,0.9489795918367346,0,0)"><g id="PatternRootContent2"><g id="Pattern1514Layer2Element3"><use xlink:href="#Pattern1514Element3" x="13.262630462646484" y="-51.949466705322266" transform="translate(49, -21) scale(1) translate(-49, 21) rotate(90, 49, -21)"></use><use xlink:href="#Pattern1514Element3" x="-35.737369537353516" y="-51.949466705322266" transform="translate(0, -21) scale(1) translate(0, 21) rotate(90, 0, -21)"></use><use xlink:href="#Pattern1514Element3" x="-11.237369537353516" y="-9.949466705322266" transform="translate(24.5, 21) scale(1) translate(-24.5, -21) rotate(90, 24.5, 21)"></use><use xlink:href="#Pattern1514Element3" x="-60.237369537353516" y="-9.949466705322266" transform="translate(-24.5, 21) scale(1) translate(24.5, -21) rotate(90, -24.5, 21)"></use><use xlink:href="#Pattern1514Element3" x="37.762630462646484" y="-9.949466705322266" transform="translate(73.5, 21) scale(1) translate(-73.5, -21) rotate(90, 73.5, 21)"></use><use xlink:href="#Pattern1514Element3" x="13.262630462646484" y="32.050533294677734" transform="translate(49, 63) scale(1) translate(-49, -63) rotate(90, 49, 63)"></use><use xlink:href="#Pattern1514Element3" x="-35.737369537353516" y="32.050533294677734" transform="translate(0, 63) scale(1) translate(0, -63) rotate(90, 0, 63)"></use><use xlink:href="#Pattern1514Element3" x="-11.237369537353516" y="74.05053329467773" transform="translate(24.5, 105) scale(1) translate(-24.5, -105) rotate(90, 24.5, 105)"></use><use xlink:href="#Pattern1514Element3" x="-11.237369537353516" y="74.05053329467773" transform="translate(24.5, 105) scale(1) translate(-24.5, -105) rotate(90, 24.5, 105)"></use></g></g></pattern><symbol id="Pattern1514Element3"><g class="color_4 fill_color_4" fill="#d9d9d9"><g><path d="M30.995,2.745180606842041L23.152,7.360180377960205L30.457,19.774179458618164L35.737,28.745180130004883L41.017,19.774179458618164L48.322,7.360180377960205L40.479,2.745180606842041L35.737,10.803179740905762Z"></path><path d="M40.479,60.74518585205078L48.322,56.130184173583984L41.017,43.716182708740234L35.737,34.745182037353516L30.457,43.716182708740234L23.152,56.130184173583984L30.995,60.74518585205078L35.737,52.68718338012695Z"></path></g><g><path d="M58.893,34.63848876953125L58.818,25.53875160217285L44.414,25.65806770324707L34.005,25.745182037353516L39.134,34.80329895019531L46.233,47.336612701416016L54.151,42.85187530517578L49.544,34.716182708740234Z"></path><path d="M3.922,13.851873397827148L3.997,22.951610565185547L18.4,22.832294464111328L28.809,22.745182037353516L23.68,13.687067031860352L16.582,1.1537503004074097L8.664,5.638489246368408L13.271,13.774181365966797Z"></path></g><g><path d="M17.324,42.85187530517578L25.242,47.336612701416016L32.34,34.80329513549805L37.469,25.745180130004883L27.06,25.658065795898438L12.657,25.53874969482422L12.582,34.63848876953125L21.931,34.716182708740234Z"></path><path d="M62.811,5.638488292694092L54.893,1.1537493467330933L47.795,13.687065124511719L42.666,22.745180130004883L53.075,22.832294464111328L67.478,22.951608657836914L67.553,13.851873397827148L58.204,13.774179458618164Z"></path></g></g></symbol></defs><rect width="100%" height="100%" id="Pattern1514RctLayer1" fill="url(#Pattern1514Layer1)"></rect><rect width="100%" height="100%" id="Pattern1514RctLayer2" fill="url(#Pattern1514Layer2)"></rect></svg>