<svg xmlns="http://www.w3.org/2000/svg" version="1.1" xmlns:xlink="http://www.w3.org/1999/xlink" xmlns:svgjs="http://svgjs.com/svgjs" id="Pattern1472SvgRootPreview" width="100%" height="100%"><defs><pattern x="0" y="0" width="1" height="1" patternUnits="userSpaceOnUse" id="Pattern1472Layer1"><g id="PatternRootContent1"><g id="Pattern1472Layer1background"><rect width="1" height="1" id="Pattern1472Background1" class="color_1 fill_color_1" fill="#026873"></rect></g></g></pattern><pattern x="0" y="0" width="165" height="286" patternUnits="userSpaceOnUse" id="Pattern1472Layer2" patternTransform="matrix(0.5,0,0,0.5,0,0)"><g id="PatternRootContent2"><g id="Pattern1472Layer2Element3"><use xlink:href="#Pattern1472Element3" x="67.87158966064453" y="-160.0584945678711" transform="translate(165, -71.5) scale(1) translate(-165, 71.5) rotate(90, 165, -71.5)"></use><use xlink:href="#Pattern1472Element3" x="-97.12841033935547" y="-160.0584945678711" transform="translate(0, -71.5) scale(1) translate(0, 71.5) rotate(90, 0, -71.5)"></use><use xlink:href="#Pattern1472Element3" x="-14.628410339355469" y="-17.058494567871094" transform="translate(82.5, 71.5) scale(1) translate(-82.5, -71.5) rotate(90, 82.5, 71.5)"></use><use xlink:href="#Pattern1472Element3" x="-179.62841033935547" y="-17.058494567871094" transform="translate(-82.5, 71.5) scale(1) translate(82.5, -71.5) rotate(90, -82.5, 71.5)"></use><use xlink:href="#Pattern1472Element3" x="150.37158966064453" y="-17.058494567871094" transform="translate(247.5, 71.5) scale(1) translate(-247.5, -71.5) rotate(90, 247.5, 71.5)"></use><use xlink:href="#Pattern1472Element3" x="67.87158966064453" y="125.9415054321289" transform="translate(165, 214.5) scale(1) translate(-165, -214.5) rotate(90, 165, 214.5)"></use><use xlink:href="#Pattern1472Element3" x="-97.12841033935547" y="125.9415054321289" transform="translate(0, 214.5) scale(1) translate(0, -214.5) rotate(90, 0, 214.5)"></use><use xlink:href="#Pattern1472Element3" x="-14.628410339355469" y="268.9415054321289" transform="translate(82.5, 357.5) scale(1) translate(-82.5, -357.5) rotate(90, 82.5, 357.5)"></use><use xlink:href="#Pattern1472Element3" x="-14.628410339355469" y="268.9415054321289" transform="translate(82.5, 357.5) scale(1) translate(-82.5, -357.5) rotate(90, 82.5, 357.5)"></use></g></g></pattern><symbol id="Pattern1472Element3"><g class="color_4 fill_color_4" fill="#012326"><g><path d="M114.064,125.30084228515625c-2.037,-2.036,-4.752,-3.168,-7.51,-3.168l-7.531,-0.46l0,-0.014l-4.031,-0.255l0,0.028l-7.191,-0.431c-1.803,-0.007,-3.5,-0.714,-4.78,-1.994c-2.645,-2.645,-2.652,-6.937,-0.021,-9.567s6.923,-2.623,9.567,0.021c1.28,1.28,1.987,2.977,1.994,4.907l0.184,3.026l4.023,0.247l-0.205,-3.373c-0.007,-2.878,-1.131,-5.586,-3.175,-7.63C91.182,102.419,84.351,102.405,80.158,106.59786987304688s-4.179,11.024,0.035,15.238c2.036,2.036,4.745,3.161,7.502,3.175L95.233,125.4634780883789l0,0.014l4.031,0.24l0,-0.014l7.184,0.438c1.81,0,3.507,0.707,4.787,1.987c2.645,2.645,2.652,6.937,0.021,9.567s-6.923,2.623,-9.567,-0.021c-1.28,-1.28,-1.987,-2.977,-2.001,-4.9l-0.184,-3.026l-4.031,-0.24l0.205,3.373c0.007,2.878,1.138,5.579,3.175,7.616C103.075,144.718,109.906,144.732,114.099,140.53900146484375s4.179,-11.024,-0.035,-15.238Z"></path><path d="M104.481,167.36854553222656c2.782,-0.745,5.119,-2.531,6.498,-4.919l4.163,-6.292l0.012,0.007l2.236,-3.363l-0.024,-0.014l3.969,-6.012c0.908,-1.558,2.369,-2.674,4.117,-3.143c3.613,-0.968,7.333,1.172,8.296,4.765s-1.189,7.307,-4.802,8.275c-1.748,0.468,-3.572,0.232,-5.247,-0.727l-2.713,-1.354l-2.226,3.361l3.024,1.509c2.496,1.433,5.403,1.813,8.195,1.065C135.738,158.993,139.166,153.085,137.631,147.35678100585938s-7.457,-9.131,-13.214,-7.588c-2.782,0.745,-5.11,2.529,-6.501,4.91L113.755,150.97975158691406l-0.012,-0.007l-2.223,3.37l0.012,0.007l-3.972,6.002c-0.905,1.568,-2.366,2.684,-4.114,3.152c-3.613,0.968,-7.333,-1.172,-8.296,-4.765s1.189,-7.307,4.802,-8.275c1.748,-0.468,3.572,-0.232,5.244,0.717l2.713,1.354l2.223,-3.37l-3.024,-1.509c-2.496,-1.433,-5.401,-1.804,-8.183,-1.058C93.16,148.144,89.732,154.052,91.267,159.78009033203125s7.457,9.131,13.214,7.588Z"></path><path d="M72.841,138.03590393066406c-0.746,2.782,-0.368,5.699,1.011,8.087l3.367,6.752l-0.012,0.007l1.795,3.618l0.024,-0.014l3.222,6.443c0.895,1.565,1.132,3.388,0.663,5.137c-0.968,3.613,-4.682,5.765,-8.275,4.802s-5.733,-4.683,-4.765,-8.296c0.468,-1.748,1.585,-3.209,3.253,-4.181l2.529,-1.672l-1.797,-3.608l-2.818,1.864c-2.489,1.445,-4.272,3.773,-5.02,6.564C64.465,169.293,67.868,175.216,73.596,176.7506561279297s11.637,-1.893,13.179,-7.65c0.745,-2.782,0.365,-5.689,-1.002,-8.085L82.397,154.26206970214844l0.012,-0.007l-1.807,-3.611l-0.012,0.007l-3.212,-6.441c-0.905,-1.568,-1.141,-3.391,-0.673,-5.139c0.968,-3.613,4.682,-5.765,8.275,-4.802s5.733,4.683,4.765,8.296c-0.468,1.748,-1.585,3.209,-3.243,4.183l-2.529,1.672l1.807,3.611l2.818,-1.864c2.489,-1.445,4.262,-3.775,5.008,-6.557C95.151,137.843,91.748,131.921,86.02,130.38621520996094s-11.637,1.893,-13.179,7.65Z"></path></g><g><path d="M73.776,121.59628295898438c0.745,-2.782,0.368,-5.699,-1.011,-8.088l-3.367,-6.752l0.012,-0.007l-1.795,-3.618l-0.024,0.014l-3.222,-6.443c-0.895,-1.565,-1.132,-3.388,-0.663,-5.137c0.968,-3.613,4.682,-5.765,8.275,-4.802s5.733,4.684,4.765,8.296c-0.469,1.749,-1.585,3.209,-3.253,4.18l-2.529,1.672l1.798,3.608l2.819,-1.864c2.489,-1.445,4.272,-3.772,5.02,-6.565C82.152,90.339,78.748,84.416,73.021,82.88134002685547s-11.637,1.893,-13.179,7.649c-0.745,2.781,-0.365,5.69,1.001,8.084L64.22,105.36947631835938l-0.012,0.007l1.808,3.611l0.012,-0.007l3.213,6.441c0.905,1.568,1.141,3.391,0.673,5.139c-0.968,3.613,-4.682,5.765,-8.275,4.802s-5.733,-4.684,-4.765,-8.296c0.469,-1.749,1.585,-3.209,3.243,-4.183l2.529,-1.672l-1.808,-3.611l-2.819,1.864c-2.489,1.445,-4.263,3.775,-5.008,6.558C51.466,121.788,54.869,127.711,60.597,129.24566650390625s11.637,-1.893,13.179,-7.649Z"></path><path d="M32.553,134.3310089111328c2.036,2.037,4.752,3.168,7.509,3.168l7.531,0.459l0,0.014l4.03,0.255l0,-0.028l7.191,0.431c1.803,0.007,3.5,0.715,4.78,1.994c2.645,2.645,2.652,6.937,0.021,9.567s-6.923,2.624,-9.567,-0.021c-1.279,-1.28,-1.987,-2.977,-1.994,-4.908l-0.184,-3.027l-4.024,-0.247l0.205,3.373c0.007,2.878,1.131,5.586,3.175,7.63C55.435,157.213,62.266,157.227,66.459,153.03387451171875s4.179,-11.023,-0.036,-15.238c-2.036,-2.037,-4.745,-3.161,-7.503,-3.175L51.383,134.1681365966797l0,-0.014l-4.03,-0.24l0,0.014l-7.184,-0.439c-1.81,0,-3.507,-0.707,-4.787,-1.987c-2.645,-2.645,-2.652,-6.937,-0.021,-9.567s6.923,-2.624,9.567,0.021c1.279,1.28,1.987,2.977,2.001,4.9l0.184,3.027l4.03,0.24l-0.205,-3.373c-0.007,-2.878,-1.138,-5.579,-3.175,-7.616C43.542,114.914,36.711,114.9,32.518,119.09312438964844s-4.179,11.023,0.036,15.238Z"></path><path d="M42.136,92.2636489868164c-2.782,0.745,-5.119,2.531,-6.498,4.919l-4.164,6.292l-0.012,-0.007l-2.236,3.364l0.024,0.014l-3.969,6.012c-0.908,1.558,-2.368,2.674,-4.117,3.143c-3.613,0.968,-7.334,-1.172,-8.296,-4.765s1.189,-7.306,4.802,-8.275c1.748,-0.469,3.572,-0.232,5.247,0.727l2.712,1.354l2.226,-3.36l-3.023,-1.508c-2.496,-1.433,-5.404,-1.813,-8.195,-1.065C10.879,100.638,7.451,106.547,8.986,112.27487182617188s7.457,9.131,13.214,7.588c2.782,-0.746,5.109,-2.528,6.501,-4.91L32.862,108.6524658203125l0.012,0.007l2.224,-3.37l-0.012,-0.007l3.972,-6.002c0.905,-1.568,2.366,-2.684,4.114,-3.152c3.613,-0.968,7.334,1.172,8.296,4.765s-1.189,7.306,-4.802,8.275c-1.748,0.469,-3.572,0.232,-5.244,-0.717l-2.712,-1.354l-2.224,3.37l3.023,1.508c2.496,1.433,5.4,1.804,8.183,1.059C53.458,111.488,56.885,105.58,55.35,99.8521499633789s-7.458,-9.131,-13.214,-7.588Z"></path></g><g><path d="M56.841,84.85393524169922c2.782,-0.746,5.119,-2.531,6.498,-4.92l4.164,-6.292l0.012,0.007l2.236,-3.363l-0.024,-0.014l3.969,-6.012c0.908,-1.558,2.368,-2.674,4.117,-3.143c3.613,-0.968,7.334,1.172,8.296,4.765s-1.19,7.307,-4.802,8.275c-1.749,0.469,-3.572,0.232,-5.247,-0.727l-2.713,-1.354l-2.225,3.361l3.024,1.509c2.496,1.433,5.403,1.814,8.195,1.065C88.098,76.478,91.526,70.57,89.991,64.84196472167969s-7.457,-9.131,-13.214,-7.589c-2.781,0.745,-5.11,2.529,-6.501,4.909L66.115,68.46449279785156l-0.012,-0.007l-2.223,3.371l0.012,0.007l-3.971,6.003c-0.905,1.568,-2.366,2.684,-4.114,3.152c-3.613,0.968,-7.334,-1.172,-8.296,-4.765s1.19,-7.307,4.802,-8.275c1.749,-0.469,3.572,-0.232,5.244,0.717l2.713,1.354l2.223,-3.371l-3.024,-1.509c-2.496,-1.433,-5.401,-1.804,-8.183,-1.058C45.52,65.629,42.092,71.537,43.627,77.26516723632812s7.457,9.131,13.214,7.589Z"></path><path d="M25.201,55.52096176147461c-0.746,2.782,-0.368,5.699,1.011,8.087l3.368,6.751l-0.012,0.007l1.794,3.618l0.024,-0.014l3.222,6.443c0.895,1.565,1.131,3.389,0.663,5.137c-0.968,3.613,-4.681,5.765,-8.275,4.802s-5.734,-4.683,-4.765,-8.296c0.469,-1.748,1.585,-3.209,3.253,-4.181l2.529,-1.673l-1.798,-3.608l-2.819,1.864c-2.489,1.445,-4.272,3.773,-5.02,6.565C16.826,86.778,20.228,92.701,25.956,94.23558807373047s11.637,-1.892,13.179,-7.65c0.746,-2.782,0.365,-5.69,-1.002,-8.085L34.757,71.74687957763672l0.012,-0.007l-1.807,-3.61l-0.012,0.007l-3.212,-6.441c-0.905,-1.568,-1.141,-3.391,-0.673,-5.139c0.968,-3.613,4.681,-5.765,8.275,-4.802s5.734,4.683,4.765,8.296c-0.469,1.748,-1.585,3.209,-3.243,4.183l-2.529,1.673l1.807,3.61l2.819,-1.864c2.489,-1.445,4.263,-3.775,5.008,-6.558C47.51,55.329,44.108,49.406,38.379,47.87153244018555s-11.636,1.892,-13.178,7.65Z"></path><path d="M66.423,42.78623962402344c-2.036,-2.037,-4.751,-3.168,-7.509,-3.168l-7.531,-0.46l0,-0.014l-4.031,-0.254l0,0.028l-7.191,-0.431c-1.803,-0.007,-3.5,-0.714,-4.78,-1.994c-2.645,-2.645,-2.652,-6.937,-0.021,-9.567s6.922,-2.623,9.567,0.021c1.28,1.279,1.987,2.977,1.994,4.908l0.183,3.026l4.023,0.248l-0.205,-3.372c-0.007,-2.878,-1.132,-5.586,-3.175,-7.629C43.542,19.904,36.711,19.889,32.518,24.082714080810547s-4.179,11.024,0.036,15.238c2.037,2.036,4.744,3.161,7.503,3.175L47.593,42.94889831542969l0,0.014l4.031,0.241l0,-0.014l7.184,0.439c1.81,0,3.507,0.707,4.787,1.987c2.645,2.645,2.652,6.937,0.021,9.567s-6.922,2.623,-9.567,-0.021c-1.28,-1.279,-1.987,-2.977,-2.001,-4.9l-0.183,-3.026l-4.031,-0.241l0.205,3.372c0.007,2.878,1.138,5.578,3.175,7.616C55.436,62.204,62.266,62.218,66.459,58.02443313598633s4.179,-11.024,-0.036,-15.238Z"></path></g><g><path d="M80.193,51.81614685058594c2.037,2.036,4.752,3.168,7.51,3.168l7.531,0.46l0,0.014l4.031,0.255l0,-0.028l7.191,0.431c1.803,0.007,3.5,0.714,4.78,1.994c2.645,2.645,2.652,6.937,0.021,9.567s-6.923,2.623,-9.567,-0.021c-1.28,-1.28,-1.987,-2.977,-1.994,-4.907l-0.184,-3.026l-4.023,-0.247l0.205,3.373c0.007,2.878,1.131,5.586,3.175,7.63C103.075,74.698,109.906,74.712,114.099,70.51911926269531s4.179,-11.024,-0.035,-15.238c-2.036,-2.036,-4.745,-3.161,-7.502,-3.175L99.024,51.65351104736328l0,-0.014l-4.031,-0.24l0,0.014l-7.184,-0.438c-1.81,0,-3.507,-0.707,-4.787,-1.987c-2.645,-2.645,-2.652,-6.937,-0.021,-9.567s6.923,-2.623,9.567,0.021c1.28,1.28,1.987,2.977,2.001,4.9l0.184,3.026l4.031,0.24l-0.205,-3.373c-0.007,-2.878,-1.138,-5.579,-3.175,-7.616C91.182,32.399,84.351,32.385,80.158,36.57799530029297s-4.179,11.024,0.035,15.238Z"></path><path d="M89.776,9.748442649841309c-2.782,0.745,-5.119,2.531,-6.498,4.919l-4.163,6.292l-0.012,-0.007l-2.236,3.363l0.024,0.014l-3.969,6.012c-0.908,1.558,-2.369,2.674,-4.117,3.143c-3.613,0.968,-7.333,-1.172,-8.296,-4.765s1.189,-7.307,4.802,-8.275c1.748,-0.468,3.572,-0.232,5.247,0.727l2.713,1.354l2.226,-3.361l-3.024,-1.509c-2.496,-1.433,-5.403,-1.813,-8.195,-1.065C58.519,18.124,55.091,24.032,56.626,29.760215759277344s7.457,9.131,13.214,7.588c2.782,-0.745,5.11,-2.529,6.501,-4.91L80.502,26.13724136352539l0.012,0.007l2.223,-3.37l-0.012,-0.007l3.972,-6.002c0.905,-1.568,2.366,-2.684,4.114,-3.152c3.613,-0.968,7.333,1.172,8.296,4.765s-1.189,7.307,-4.802,8.275c-1.748,0.468,-3.572,0.232,-5.244,-0.717l-2.713,-1.354l-2.223,3.37l3.024,1.509c2.496,1.433,5.401,1.804,8.183,1.058C101.097,28.973,104.525,23.065,102.99,17.336902618408203s-7.457,-9.131,-13.214,-7.588Z"></path><path d="M121.416,39.081085205078125c0.746,-2.782,0.368,-5.699,-1.011,-8.087l-3.367,-6.752l0.012,-0.007l-1.795,-3.618l-0.024,0.014l-3.222,-6.443c-0.895,-1.565,-1.132,-3.388,-0.663,-5.137c0.968,-3.613,4.682,-5.765,8.275,-4.802s5.733,4.683,4.765,8.296c-0.468,1.748,-1.585,3.209,-3.253,4.181l-2.529,1.672l1.797,3.608l2.818,-1.864c2.489,-1.445,4.272,-3.773,5.02,-6.564C129.792,7.824,126.389,1.901,120.661,0.3663400113582611s-11.637,1.893,-13.179,7.65c-0.745,2.782,-0.365,5.689,1.002,8.085L111.86,22.85492706298828l-0.012,0.007l1.807,3.611l0.012,-0.007l3.212,6.441c0.905,1.568,1.141,3.391,0.673,5.139c-0.968,3.613,-4.682,5.765,-8.275,4.802s-5.733,-4.683,-4.765,-8.296c0.468,-1.748,1.585,-3.209,3.243,-4.183l2.529,-1.672l-1.807,-3.611l-2.818,1.864c-2.489,1.445,-4.262,3.775,-5.008,6.557C99.106,39.274,102.509,45.196,108.237,46.730777740478516s11.637,-1.893,13.179,-7.65Z"></path></g><g><path d="M120.48,55.52070617675781c-0.744,2.782,-0.367,5.699,1.012,8.088l3.367,6.752l-0.012,0.007l1.795,3.618l0.024,-0.014l3.222,6.443c0.895,1.565,1.132,3.388,0.663,5.137c-0.968,3.613,-4.682,5.765,-8.275,4.802s-5.733,-4.684,-4.765,-8.296c0.469,-1.749,1.585,-3.209,3.253,-4.18l2.529,-1.672l-1.798,-3.608l-2.819,1.864c-2.489,1.445,-4.272,3.772,-5.02,6.565C112.105,86.778,115.509,92.701,121.236,94.23565673828125s11.637,-1.893,13.179,-7.649c0.745,-2.781,0.365,-5.69,-1.001,-8.084L130.037,71.74751281738281l0.012,-0.007l-1.808,-3.611l-0.012,0.007l-3.213,-6.441c-0.905,-1.568,-1.141,-3.391,-0.673,-5.139c0.968,-3.613,4.682,-5.765,8.275,-4.802s5.733,4.684,4.765,8.296c-0.469,1.749,-1.585,3.209,-3.243,4.183l-2.529,1.672l1.808,3.611l2.819,-1.864c2.489,-1.445,4.263,-3.775,5.008,-6.558C142.791,55.329,139.387,49.406,133.66,47.87132263183594s-11.637,1.893,-13.179,7.649Z"></path><path d="M161.704,42.785980224609375c-2.037,-2.037,-4.752,-3.168,-7.509,-3.168l-7.531,-0.459l0,-0.014l-4.03,-0.255l0,0.028l-7.191,-0.431c-1.803,-0.007,-3.5,-0.715,-4.78,-1.994c-2.645,-2.645,-2.652,-6.937,-0.021,-9.567s6.923,-2.624,9.567,0.021c1.279,1.28,1.987,2.977,1.994,4.908l0.184,3.027l4.024,0.247l-0.205,-3.373c-0.007,-2.878,-1.131,-5.586,-3.175,-7.63C138.822,19.904,131.991,19.89,127.798,24.083120346069336s-4.179,11.023,0.036,15.238c2.036,2.037,4.745,3.161,7.503,3.175L142.874,42.948856353759766l-0.001,0.014l4.03,0.24l0,-0.014l7.184,0.439c1.81,0,3.507,0.707,4.787,1.987c2.645,2.645,2.652,6.937,0.021,9.567s-6.923,2.624,-9.567,-0.021c-1.279,-1.28,-1.987,-2.977,-2.001,-4.9l-0.184,-3.027l-4.03,-0.24l0.205,3.373c0.007,2.878,1.138,5.579,3.175,7.616C150.715,62.203,157.546,62.217,161.739,58.023868560791016s4.179,-11.023,-0.036,-15.238Z"></path><path d="M152.121,84.85334014892578c2.782,-0.745,5.119,-2.531,6.498,-4.919l4.164,-6.292l0.012,0.007l2.236,-3.364l-0.024,-0.014l3.969,-6.012c0.908,-1.558,2.368,-2.674,4.117,-3.143c3.613,-0.968,7.334,1.172,8.296,4.765s-1.189,7.306,-4.802,8.275c-1.748,0.469,-3.572,0.232,-5.247,-0.727l-2.712,-1.354l-2.226,3.36l3.023,1.508c2.496,1.433,5.404,1.813,8.195,1.065C183.378,76.479,186.806,70.57,185.271,64.84212493896484s-7.458,-9.131,-13.214,-7.588c-2.782,0.746,-5.109,2.528,-6.501,4.91L161.395,68.46452331542969l-0.012,-0.007l-2.224,3.37l0.012,0.007l-3.972,6.002c-0.905,1.568,-2.366,2.684,-4.114,3.152c-3.613,0.968,-7.334,-1.172,-8.296,-4.765s1.189,-7.306,4.802,-8.275c1.748,-0.469,3.572,-0.232,5.244,0.717l2.712,1.354l2.224,-3.37l-3.023,-1.508c-2.496,-1.433,-5.4,-1.804,-8.183,-1.059C140.799,65.629,137.372,71.537,138.907,77.26483917236328s7.457,9.131,13.214,7.588Z"></path></g><g><path d="M137.416,92.26305389404297c-2.782,0.746,-5.12,2.531,-6.499,4.92l-4.164,6.292l-0.012,-0.007l-2.236,3.363l0.024,0.014l-3.969,6.012c-0.908,1.558,-2.368,2.674,-4.117,3.143c-3.613,0.968,-7.334,-1.172,-8.296,-4.765s1.19,-7.307,4.802,-8.275c1.749,-0.469,3.572,-0.232,5.247,0.727l2.713,1.354l2.225,-3.361l-3.024,-1.509c-2.496,-1.433,-5.403,-1.814,-8.195,-1.065C106.159,100.639,102.731,106.547,104.266,112.2750244140625s7.457,9.131,13.214,7.589c2.781,-0.745,5.11,-2.529,6.501,-4.909L128.141,108.65249633789062l0.012,0.007l2.223,-3.371l-0.012,-0.007l3.971,-6.003c0.905,-1.568,2.366,-2.684,4.114,-3.152c3.613,-0.968,7.334,1.172,8.296,4.765s-1.19,7.307,-4.802,8.275c-1.749,0.469,-3.572,0.232,-5.244,-0.717l-2.713,-1.354l-2.223,3.371l3.024,1.509c2.496,1.433,5.401,1.804,8.183,1.058C148.737,111.488,152.165,105.58,150.63,99.85182189941406s-7.457,-9.131,-13.214,-7.589Z"></path><path d="M169.056,121.59603118896484c0.746,-2.782,0.368,-5.699,-1.011,-8.087l-3.368,-6.751l0.012,-0.007l-1.794,-3.618l-0.024,0.014l-3.222,-6.443c-0.895,-1.565,-1.131,-3.389,-0.663,-5.137c0.968,-3.613,4.681,-5.765,8.275,-4.802s5.734,4.683,4.765,8.296c-0.469,1.748,-1.585,3.209,-3.253,4.181l-2.529,1.673l1.798,3.608l2.819,-1.864c2.489,-1.445,4.272,-3.773,5.02,-6.565C177.431,90.339,174.029,84.416,168.3,82.88140106201172s-11.636,1.892,-13.178,7.65c-0.746,2.782,-0.365,5.69,1.002,8.085L159.5,105.37010955810547l-0.012,0.007l1.807,3.61l0.012,-0.007l3.212,6.441c0.905,1.568,1.141,3.391,0.673,5.139c-0.968,3.613,-4.681,5.765,-8.275,4.802s-5.734,-4.683,-4.765,-8.296c0.469,-1.748,1.585,-3.209,3.243,-4.183l2.529,-1.673l-1.807,-3.61l-2.819,1.864c-2.489,1.445,-4.263,3.775,-5.008,6.558C146.747,121.788,150.149,127.711,155.877,129.24546813964844s11.637,-1.892,13.179,-7.65Z"></path><path d="M127.833,134.33074951171875c2.037,2.037,4.752,3.168,7.509,3.168l7.531,0.46l0,0.014l4.031,0.254l0,-0.028l7.191,0.431c1.803,0.007,3.5,0.714,4.78,1.994c2.645,2.645,2.652,6.937,0.021,9.567s-6.922,2.623,-9.567,-0.021c-1.28,-1.279,-1.987,-2.977,-1.994,-4.908l-0.184,-3.026l-4.023,-0.248l0.205,3.372c0.007,2.878,1.132,5.586,3.175,7.629C150.715,157.213,157.546,157.228,161.739,153.03427124023438s4.179,-11.024,-0.036,-15.238c-2.037,-2.036,-4.744,-3.161,-7.503,-3.175L146.664,134.1680908203125l0,-0.014l-4.031,-0.241l0,0.014l-7.184,-0.439c-1.81,0,-3.507,-0.707,-4.787,-1.987c-2.645,-2.645,-2.652,-6.937,-0.021,-9.567s6.922,-2.623,9.567,0.021c1.28,1.279,1.987,2.977,2.001,4.9l0.184,3.026l4.031,0.241l-0.205,-3.372c-0.007,-2.878,-1.138,-5.578,-3.175,-7.616C138.821,114.913,131.991,114.899,127.798,119.09255981445312s-4.179,11.024,0.036,15.238Z"></path></g></g></symbol></defs><rect width="100%" height="100%" id="Pattern1472RctLayer1" fill="url(#Pattern1472Layer1)"></rect><rect width="100%" height="100%" id="Pattern1472RctLayer2" fill="url(#Pattern1472Layer2)"></rect></svg>