<svg xmlns="http://www.w3.org/2000/svg" version="1.1" xmlns:xlink="http://www.w3.org/1999/xlink" xmlns:svgjs="http://svgjs.dev/svgjs" id="BgenPttrnSvgRootPreview" width="100%" height="100%"><defs><pattern x="0" y="0" width="1" height="1" patternUnits="userSpaceOnUse" id="BgenPttrnLayer1"><g id="PatternRootContent1"><g id="BgenPttrnLayer1background"><rect width="1" height="1" id="BgenPttrnBackground1" class="color_1 fill_color_1" fill="#b0b0b0"></rect></g></g></pattern><pattern x="0" y="0" width="76" height="24" patternUnits="userSpaceOnUse" id="BgenPttrnLayer2" patternTransform="matrix(1,0,0,1,0,0)"><g id="PatternRootContent2"><g id="BgenPttrnLayer2Element2"><use xlink:href="#BgenPttrnElement2" x="63.57503890991211" y="-25.811504364013672" transform="translate(76, -6) scale(1) translate(-76, 6) rotate(45, 76, -6)"></use><use xlink:href="#BgenPttrnElement2" x="-12.42496109008789" y="-25.811504364013672" transform="translate(0, -6) scale(1) translate(0, 6) rotate(45, 0, -6)"></use><use xlink:href="#BgenPttrnElement2" x="25.57503890991211" y="-13.811504364013672" transform="translate(38, 6) scale(1) translate(-38, -6) rotate(45, 38, 6)"></use><use xlink:href="#BgenPttrnElement2" x="-50.42496109008789" y="-13.811504364013672" transform="translate(-38, 6) scale(1) translate(38, -6) rotate(45, -38, 6)"></use><use xlink:href="#BgenPttrnElement2" x="25.57503890991211" y="-37.81150436401367" transform="translate(38, -18) scale(1) translate(-38, 18) rotate(45, 38, -18)"></use><use xlink:href="#BgenPttrnElement2" x="101.57503890991211" y="-13.811504364013672" transform="translate(114, 6) scale(1) translate(-114, -6) rotate(45, 114, 6)"></use><use xlink:href="#BgenPttrnElement2" x="63.57503890991211" y="-1.8115043640136719" transform="translate(76, 18) scale(1) translate(-76, -18) rotate(45, 76, 18)"></use><use xlink:href="#BgenPttrnElement2" x="-12.42496109008789" y="-1.8115043640136719" transform="translate(0, 18) scale(1) translate(0, -18) rotate(45, 0, 18)"></use><use xlink:href="#BgenPttrnElement2" x="25.57503890991211" y="10.188495635986328" transform="translate(38, 30) scale(1) translate(-38, -30) rotate(45, 38, 30)"></use><use xlink:href="#BgenPttrnElement2" x="25.57503890991211" y="10.188495635986328" transform="translate(38, 30) scale(1) translate(-38, -30) rotate(45, 38, 30)"></use></g></g></pattern><symbol id="BgenPttrnElement2"><g class="color_3 fill_color_3" fill="#635a5a"><path d="M13.569,19.50333595275879C12.025,18.539,11.334,16.645,11.885,14.913703918457031L5.83,11.130080223083496A5.0000000792066315,5.0000000792066315,0,0,1,4.239,4.24A5.0000000792066315,5.0000000792066315,0,0,1,11.129,2.65L15.369,5.299194812774658L8.48,6.8898396492004395L10.069,4.3456950187683105A3.000000047523979,3.000000047523979,0,0,0,5.935,5.3A3.000000047523979,3.000000047523979,0,0,0,6.89,9.434L12.945,13.217607498168945C14.273,11.96,16.282,11.765,17.834,12.734848022460938C19.708,13.906,20.246,16.365,19.081,18.230819702148438C17.904,20.113,15.443,20.674,13.569,19.50333595275879M13.992,15.051304817199707A2.0000000316826525,2.0000000316826525,0,0,0,14.629,17.807A2.0000000316826525,2.0000000316826525,0,0,0,17.385,17.171A2.0000000316826525,2.0000000316826525,0,0,0,16.748,14.415A2.0000000316826525,2.0000000316826525,0,0,0,13.992,15.051Z" transform="matrix(1,0,0,1,0,0)"></path><path d="M11.281,20.119674682617188C12.825,21.084,13.516,22.978,12.965,24.709306716918945L19.02,28.492931365966797A5.0000000792066315,5.0000000792066315,0,0,1,20.611,35.383A5.0000000792066315,5.0000000792066315,0,0,1,13.721,36.973L9.48,34.32381820678711L16.37,32.73317337036133L14.781,35.27731704711914A3.000000047523979,3.000000047523979,0,0,0,18.914,34.323A3.000000047523979,3.000000047523979,0,0,0,17.96,30.189L11.905,26.40540313720703C10.577,27.663,8.568,27.858,7.016,26.88816261291504C5.142,25.717,4.603,23.258,5.769,21.39219093322754C6.946,19.51,9.407,18.949,11.281,20.119674682617188M10.858,24.571706771850586A2.0000000316826525,2.0000000316826525,0,0,0,10.221,21.816A2.0000000316826525,2.0000000316826525,0,0,0,7.465,22.452A2.0000000316826525,2.0000000316826525,0,0,0,8.102,25.208A2.0000000316826525,2.0000000316826525,0,0,0,10.858,24.572Z" transform="matrix(1,0,0,1,0,0)"></path></g></symbol></defs><rect width="100%" height="100%" id="BgenPttrnRctLayer1" fill="url(&quot;#BgenPttrnLayer1&quot;)"></rect><rect width="100%" height="100%" id="BgenPttrnRctLayer2" fill="url(&quot;#BgenPttrnLayer2&quot;)"></rect></svg>